# xmcd
#
# Track frame offsets: 
#        150
#        18347
#        35313
#        54405
#        74731
#        93853
#        111881
#        127612
#        142034
#        160173
#        179426
#        206095
#        224709
#        243018
#        259451
#
# Disc length: 3761 seconds
#
# Revision: 1
# Processed by: cddbd v1.4PL0 Copyright (c) Steve Scherf et al.
# Submitted via: ExactAudioCopy v0.95a3
#
DISCID=da0eaf0f
DTITLE=Various Artist - Big Hits 1980-2000 Black CD 2
DYEAR=2001
DGENRE=R and B
TTITLE0=Down Low - Johnny B.
TTITLE1=Rappers Against Racism - I Want To Know What Love Is
TTITLE2=Luniz - I Got 5 On It
TTITLE3=Vanilla Ice - Ice Ice Baby
TTITLE4=Mc Hammer - U Can't Touch This
TTITLE5=RedHead Kingpin and The F.B.I. - Do The Right Thing
TTITLE6=Arrested Development - People Everyday
TTITLE7=Shaggy - Oh Carolina
TTITLE8=Flip Da Scrip - Everybody Funk Now
TTITLE9=Timmy Thomas - Why Can't We Live Together
TTITLE10=Soul To Soul - Keep On Mooving
TTITLE11=Paula Abdul - Straight Up
TTITLE12=N-Trance - Stayin' Alive
TTITLE13=Dr. Alban - Mr. DJ
TTITLE14=Stevie B. - Because I Love
EXTD=(c) 2001 Disky - EMI Group\nupc 0724356453227\nKatalog: DO 645322
EXTD=\nCD 2/2 \n
EXTT0=
EXTT1=
EXTT2=
EXTT3=
EXTT4=
EXTT5=
EXTT6=
EXTT7=
EXTT8=
EXTT9=
EXTT10=
EXTT11=
EXTT12=
EXTT13=
EXTT14=
PLAYORDER=
